<svg width="1440" height="1061" fill="none" xmlns="http://www.w3.org/2000/svg"><path d="M-26.304-42.876L433.43 218.218 389.758 117.34l-50.449-62.308 80.778 47.887-1.025-72.684 13.56-150.074 9.441 124.073 20.917 48.935 101.779 165.155 40.387-73.115 69.628 55.378 60.224-96.902 17.881-39.554 38.512-6.707 22.868-20.7 18.668-74.127.64 103.785-.52 29.36-24.154 92.492 107.883-33.548 111.104-76.802L1190.54 13.8l-17.88 41.232 17.88 40.71 60.09-55.116h100.78L1456.85-9.48 1158.36 229.4l-101.88 41.729h134.06l134.03 59.613 150.28-69.126-123.77 192.419-108.25-21.951-79.24 61.574 79.24 60.598 67.56 34.808 41.02 75.51 72.81 225.347-128.67-122.018-105.01-51.664-142.48-150.6 8.42 150.6-64.349 62.05 20.559 98.904-129.878-109.29-75.511-136.28-60.946 27.983-64.795 161.292-149.849 179.112 88.994-214.223-29.759-147.718-53.239-46.919-57.222 47.592-195.293 20.864L4.762 895.814l83.286-168.711 28.158-82.092 82.389-72.412 69.616-100.773-100.098 78.49-51.907-16.921-164.942-170.163L64.441 393.09l24.613 15.149 91.571-107.304 106.317-10.819-126.066-79.321-43.838-106.197L-26.304-42.876z" fill="#fff"/><path d="M-26.304-42.876L433.43 218.218 389.758 117.34l-50.449-62.308 80.778 47.887-1.025-72.684 13.56-150.074 9.441 124.073 20.917 48.935 101.779 165.155 40.387-73.115 69.628 55.378 60.224-96.902 17.881-39.554 38.512-6.707 22.868-20.7 18.668-74.127.64 103.785-.52 29.36-24.154 92.492 107.883-33.548 111.104-76.802L1190.54 13.8l-17.88 41.232 17.88 40.71 60.09-55.116h100.78L1456.85-9.48 1158.36 229.4l-101.88 41.729h134.06l134.03 59.613 150.28-69.126-123.77 192.419-108.25-21.951-79.24 61.574 79.24 60.598 67.56 34.808 41.02 75.51 72.81 225.347-128.67-122.018-105.01-51.664-142.48-150.6 8.42 150.6-64.349 62.05 20.559 98.904-129.878-109.29-75.511-136.28-60.946 27.983-64.795 161.292-149.849 179.112 88.994-214.223-29.759-147.718-53.239-46.919-57.222 47.592-195.293 20.864L4.762 895.814l83.286-168.711 28.158-82.092 82.389-72.412 69.616-100.773-100.098 78.49-51.907-16.921-164.942-170.163L64.441 393.09l24.613 15.149 91.571-107.304 106.317-10.819-126.066-79.321-43.838-106.197L-26.304-42.876z" fill="#fff"/></svg>