<svg width="1440" height="1061" viewBox="0 0 1440 1061" fill="none" xmlns="http://www.w3.org/2000/svg">
<path d="M-26.3037 -42.8755L433.43 218.217L389.758 117.34L339.309 55.0322L420.087 102.919L419.062 30.2349L432.622 -119.839L442.063 4.23383L462.98 53.1691L564.759 218.324L605.146 145.209L674.774 200.587L734.998 103.685L752.879 64.1309L791.391 57.4238L814.259 36.7248L832.927 -37.4034L833.567 66.3815L833.047 95.7424L808.893 188.234L916.776 154.686L1027.88 77.8838L1190.54 13.8L1172.66 55.0322L1190.54 95.7424L1250.63 40.6258H1351.41L1456.85 -9.47987L1158.36 229.4L1056.48 271.129H1190.54L1324.57 330.742L1474.85 261.616L1351.08 454.035L1242.83 432.084L1163.59 493.658L1242.83 554.256L1310.39 589.064L1351.41 664.574L1424.22 889.921L1295.55 767.903L1190.54 716.239L1048.06 565.639L1056.48 716.239L992.131 778.289L1012.69 877.193L882.812 767.903L807.301 631.623L746.355 659.606L681.56 820.898L531.711 1000.01L620.705 785.787L590.946 638.069L537.707 591.15L480.485 638.742L285.192 659.606L4.76128 895.814L88.048 727.103L116.206 645.011L198.595 572.599L268.211 471.826L168.113 550.316L116.206 533.395L-48.7357 363.232L64.4408 393.09L89.0543 408.239L180.625 300.935L286.942 290.116L160.876 210.795L117.038 104.598L-26.3037 -42.8755Z" fill="white"/>
<path d="M-26.3037 -42.8755L433.43 218.217L389.758 117.34L339.309 55.0322L420.087 102.919L419.062 30.2349L432.622 -119.839L442.063 4.23383L462.98 53.1691L564.759 218.324L605.146 145.209L674.774 200.587L734.998 103.685L752.879 64.1309L791.391 57.4238L814.259 36.7248L832.927 -37.4034L833.567 66.3815L833.047 95.7424L808.893 188.234L916.776 154.686L1027.88 77.8838L1190.54 13.8L1172.66 55.0322L1190.54 95.7424L1250.63 40.6258H1351.41L1456.85 -9.47987L1158.36 229.4L1056.48 271.129H1190.54L1324.57 330.742L1474.85 261.616L1351.08 454.035L1242.83 432.084L1163.59 493.658L1242.83 554.256L1310.39 589.064L1351.41 664.574L1424.22 889.921L1295.55 767.903L1190.54 716.239L1048.06 565.639L1056.48 716.239L992.131 778.289L1012.69 877.193L882.812 767.903L807.301 631.623L746.355 659.606L681.56 820.898L531.711 1000.01L620.705 785.787L590.946 638.069L537.707 591.15L480.485 638.742L285.192 659.606L4.76128 895.814L88.048 727.103L116.206 645.011L198.595 572.599L268.211 471.826L168.113 550.316L116.206 533.395L-48.7357 363.232L64.4408 393.09L89.0543 408.239L180.625 300.935L286.942 290.116L160.876 210.795L117.038 104.598L-26.3037 -42.8755Z" fill="white"/>
</svg>
